<?xml version="1.0" encoding="utf-8"?>
<!-- Generator: Adobe Illustrator 18.1.1, SVG Export Plug-In . SVG Version: 6.00 Build 0)  -->
<svg version="1.1" id="Layer_1" xmlns="http://www.w3.org/2000/svg" xmlns:xlink="http://www.w3.org/1999/xlink" x="0px" y="0px"
	 viewBox="0 0 474 116.6" enable-background="new 0 0 474 116.6" xml:space="preserve">
<g>
	<g>
		<polygon fill="#FFFFFF" points="352.4,43.7 355.4,27.5 356.1,24.1 352.6,24.1 331.9,24.1 329.5,24.1 329.1,26.5 325.8,43.7 		"/>
	</g>
	<g>
		<polygon fill="#FFFFFF" points="470.5,24.1 449.9,24.1 447.5,24.1 447,26.4 436.1,84.2 395.6,25.3 394.7,24.1 393.2,24.1 
			365.8,24.1 363.4,24.1 362.9,26.4 346.7,112.9 346,116.3 349.5,116.3 370.2,116.3 372.6,116.3 373.1,114 384.3,54.2 425.6,115.1 
			426.5,116.3 428,116.3 454.3,116.3 456.7,116.3 457.1,114 473.4,27.5 474,24.1 		"/>
	</g>
	<g>
		<polygon fill="#FFFFFF" points="324.5,50.8 312.8,113 312.2,116.4 315.7,116.4 336.3,116.4 338.7,116.4 339.2,114 351.1,50.8 		
			"/>
	</g>
	<g>
		<path fill="#FFFFFF" d="M318.7,24.1h-31.2H286l-0.9,1.2l-39.5,55.9l-17.8-55.1l-0.6-2h-2.1h-37.5c2.6,4.1,4.7,8.5,6.3,13.1
			c2.4,7,3.6,14.4,3.6,21.9c-0.1,7.5-1.4,14.8-3.9,21.8c-2.5,6.7-6,13-10.5,18.6c-4.5,5.6-9.8,10.3-15.8,14.1
			c-1.6,1-3.2,1.9-4.8,2.8H197h2.4l0.4-2.4l11.4-60.9l18.6,61.2l0.6,2h2.1h14.4h1.5l0.9-1.3l41.4-61l-11,58.9l-0.6,3.4h3.5h19.7h2.4
			l0.4-2.4l16.3-86.5l0.6-3.4H318.7z"/>
	</g>
	<g>
		<g>
			<path fill="#FF9900" d="M187.1,39.6c-2.1-6-5.2-11.7-9.1-16.7c-3.9-5-8.6-9.3-13.9-12.8c-5.4-3.5-11.3-6.2-17.5-7.7
				c-4.7-1.2-9.5-1.8-14.3-1.8c-17.9,0-34,8.2-44.6,21c3.9,7.5,5.8,16.1,5.1,24.6c-0.4,4.3-1.3,8.4-2.8,12.4c-0.8,2-1.6,4-2.6,5.9
				c-0.6,1.2-1.2,2.3-1.9,3.4c-2.2,4.2-4.4,8.4-6.6,12.6c0,0.1-0.1,0.2-0.1,0.3c2.6,6.3,6.3,12.1,10.9,17c4.6,5,10,9.2,16,12.3
				c6.1,3.2,12.8,5.3,19.7,6.1c6.8,0.8,13.7,0.4,20.3-1.1c6.3-1.5,12.2-4,17.7-7.5c5.3-3.4,10.1-7.7,14.1-12.6
				c4-5,7.2-10.6,9.4-16.6c2.3-6.2,3.4-12.8,3.5-19.4C190.3,52.5,189.3,45.8,187.1,39.6z M163.8,71.8c-2.5,5.9-6.6,11-11.8,14.6
				c-5.3,3.8-11.6,5.9-18.1,6.3c-0.5,0-1.1,0-1.6,0c-6.5,0-13-1.9-18.5-5.4c-5.3-3.4-9.7-8.4-12.4-14.1c-2.8-6-3.9-12.7-3-19.3
				c0.9-6.4,3.6-12.5,7.7-17.4c4.1-4.9,9.6-8.6,15.6-10.5c6.3-2,13.2-2.2,19.6-0.4c6.2,1.7,11.8,5.1,16.1,9.8
				c4.3,4.7,7.3,10.6,8.5,16.9C167.1,58.9,166.3,65.7,163.8,71.8z M83.3,29.7C81.3,23.6,78,18,73.6,13.4c-4.4-4.6-9.8-8.2-15.7-10.5
				C53.1,1,47.9,0,42.7,0c-6.6,0-13.1,1.5-19,4.5C18,7.3,13,11.4,9.1,16.4c-4,5-6.8,11-8.1,17.3C-0.4,40.1-0.3,47,1.4,53.4
				c1.6,6.2,4.7,12,8.8,16.9c4.1,4.8,9.3,8.7,15.2,11.3c5,2.2,10.5,3.5,16,3.6l-14.2,27l-2.2,4.2h4.8h20.4H52l0.8-1.5
				c0.9-1.7,1.7-3.4,2.6-5.1c2.1-4.1,4.2-8.2,6.3-12.3c2.6-5,5.2-10.1,7.9-15.1C72,78,74.4,73.5,76.8,69c1-1.9,2.1-3.8,3.1-5.7
				c2-3.8,3.5-7.8,4.4-12C85.9,44.1,85.5,36.6,83.3,29.7z M60,49.9l-0.9,1.8l-0.6,1.1c-3.9,6.1-11.1,9.5-18.3,8.6
				c-6.4-0.8-12.1-5-14.7-10.9c-2.7-6-2-13.2,1.8-18.6c3.5-4.9,9.3-7.9,15.3-7.9c6.5,0,12.7,3.5,16.1,9C61.8,38,62.3,44.4,60,49.9z"
				/>
		</g>
	</g>
</g>
</svg>
